<svg width="33" height="34" viewBox="0 0 33 34" fill="none" xmlns="http://www.w3.org/2000/svg">
<path d="M30.7897 14.3955L32.4673 16.073C33.1776 16.7834 33.1776 17.932 32.4673 18.6348L17.7846 33.3249C17.0743 34.0353 15.9257 34.0353 15.2229 33.3249L0.532746 18.6348C-0.177582 17.9244 -0.177582 16.7758 0.532746 16.073L2.21033 14.3955C2.92821 13.6776 4.0995 13.6927 4.80227 14.4257L13.4773 23.5315V1.8136C13.4773 0.808564 14.2859 0 15.2909 0H17.7091C18.7141 0 19.5227 0.808564 19.5227 1.8136V23.5315L28.1977 14.4257C28.9005 13.6851 30.0718 13.67 30.7897 14.3955Z" fill="white"/>
</svg>
