<svg width="25" height="13" viewBox="0 0 25 13" fill="none" xmlns="http://www.w3.org/2000/svg">
<path d="M5.94141 5.47656C5.80469 5.00391 5.63672 4.17969 5.63672 4.17969H5.61719C5.61719 4.17969 5.44922 5.00391 5.3125 5.47656L4.87891 6.94141H6.36719L5.94141 5.47656ZM24.0625 0H13.125V12.5H24.0625C24.582 12.5 25 12.082 25 11.5625V0.9375C25 0.417969 24.582 0 24.0625 0ZM23.125 4.6875C23.125 4.94531 22.9141 5.15625 22.6562 5.15625H22.2109C21.9414 6.07812 21.3633 7.00781 20.543 7.88672C20.8711 8.13672 21.2109 8.375 21.5625 8.58984C21.7773 8.72266 21.8477 9 21.7227 9.22266L21.4141 9.76562C21.2812 9.99609 20.9883 10.0703 20.7617 9.93359C20.2695 9.62891 19.8047 9.30469 19.3789 8.96094C18.9531 9.30078 18.4922 9.62891 17.9961 9.93359C17.7695 10.0703 17.4766 9.99609 17.3438 9.76562L17.0352 9.22266C16.9102 9.00391 16.9805 8.72266 17.1992 8.58984C17.5625 8.36719 17.9023 8.13281 18.2188 7.88672C17.9102 7.55859 17.6367 7.22266 17.3984 6.88281C17.2422 6.66016 17.3125 6.35156 17.543 6.21484L17.7969 6.0625L18.082 5.89453C18.293 5.76953 18.5664 5.82812 18.707 6.02734C18.9023 6.30078 19.1289 6.57422 19.3867 6.84375C19.9141 6.28906 20.3164 5.71484 20.5586 5.15625H16.0938C15.8359 5.15625 15.625 4.94531 15.625 4.6875V4.0625C15.625 3.80469 15.8359 3.59375 16.0938 3.59375H18.5938V2.96875C18.5938 2.71094 18.8047 2.5 19.0625 2.5H19.6875C19.9453 2.5 20.1562 2.71094 20.1562 2.96875V3.59375H22.6562C22.9141 3.59375 23.125 3.80469 23.125 4.0625V4.6875ZM0 0.9375V11.5625C0 12.082 0.417969 12.5 0.9375 12.5H11.875V0H0.9375C0.417969 0 0 0.417969 0 0.9375ZM2.30078 9.37891L4.54688 2.77344C4.61328 2.58203 4.78906 2.45703 4.99219 2.45703H6.26172C6.46094 2.45703 6.64062 2.58594 6.70703 2.77344L8.95312 9.37891C9.05469 9.68359 8.83203 10 8.50781 10H7.61328C7.51219 9.99993 7.41383 9.96718 7.33288 9.90664C7.25192 9.8461 7.1927 9.76101 7.16406 9.66406L6.79688 8.41797H4.44531L4.08984 9.66016C4.03125 9.85937 3.84766 10 3.64062 10H2.74609C2.42578 10 2.19922 9.68359 2.30078 9.37891Z" fill="white"/>
</svg>
